<svg width="142" height="172" viewBox="0 0 142 172" fill="none" xmlns="http://www.w3.org/2000/svg">
<path d="M68.551 169.995C65.7016 166.543 57.1579 163.669 46.8832 162.705C31.1502 161.229 23.6975 156.13 20.2566 144.488C19.0631 140.449 17.9053 139.07 14.1011 137.159C2.90495 131.533 0.782379 126.989 0.782379 108.643C0.782379 101.02 1.05424 94.7833 1.38666 94.7833C1.71909 94.7833 5.54227 96.5719 9.88277 98.759C14.2233 100.943 18.0953 102.412 18.4873 102.02C18.8793 101.635 19.1868 99.7104 19.1705 97.7576C19.1476 95.0447 17.8016 92.8947 13.459 88.6376C0.0920944 75.5304 -0.695634 53.2804 11.688 38.6119L14.8932 34.8161L12.5189 32.2804C11.213 30.8947 9.59204 28.2876 8.91675 26.5061C7.70475 23.3076 7.14047 0.393279 8.27375 0.393279C8.59532 0.393279 21.336 6.63614 36.5864 14.2661C63.6643 27.8147 69.8488 31.9004 69.8488 36.2447C69.8488 37.4161 70.3669 38.379 71 38.379C71.6331 38.379 72.1511 37.679 72.1511 36.8076C72.1511 32.4433 78.2131 28.4504 105.763 14.6676L134.506 0.286136L134.121 14.0804C133.746 27.4933 133.643 27.9719 130.405 31.3476L127.074 34.8219L130.859 39.1319C138.902 48.2933 141.737 60.8218 138.38 72.369C136.261 79.659 131.429 87.5061 126.834 91.1204C124.591 92.8847 123.951 94.4419 123.951 98.129V102.87L131.98 98.8276C136.396 96.6033 140.281 94.7833 140.613 94.7833C140.946 94.7833 141.218 101.285 141.218 109.23C141.218 119.593 140.746 124.588 139.55 126.902C137.432 130.996 131.237 136.462 126.479 138.433C124.149 139.39 122.8 140.766 122.8 142.165C122.8 145.892 118.484 153.085 114.061 156.73C109.407 160.568 102.542 162.699 94.8465 162.699C88.0683 162.699 79.8217 165.296 75.0538 168.933C70.4402 172.452 70.5634 172.436 68.551 169.995ZM101.504 143.363C135.013 126.338 135.462 125.936 135.462 113.032C135.462 108.693 135.074 105.138 134.599 105.132C134.124 105.132 120.581 111.709 104.504 119.765C82.5088 130.786 74.7931 135.2 73.3357 137.596L71.3987 140.782L68.8477 137.332C66.9854 134.812 58.5428 130.002 37.5773 119.512C21.7816 111.609 8.27931 105.143 7.57212 105.143C5.23882 105.143 6.79655 121.8 9.47742 125.518C11.0896 127.753 20.613 133.225 40.5379 143.363C56.3424 151.405 70.0504 157.983 71.0001 157.983C71.9498 157.983 85.6766 151.405 101.504 143.363ZM74.8448 89.8147C79.2155 82.3561 79.5868 79.6519 76.7371 76.029C72.4308 70.5533 64.0933 73.1833 64.0933 80.0161C64.0933 83.5076 69.4237 94.7833 71.0736 94.7833C71.5459 94.7833 73.243 92.5476 74.8448 89.8147ZM50.0292 87.2404C58.0116 83.9061 64.1245 76.0247 65.8462 66.8476C68.5531 52.4176 54.5936 36.0776 39.5608 36.0776C28.3687 36.0776 16.1002 45.7276 13.497 56.579C10.4825 69.1447 16.8308 82.1776 28.409 87.1933C33.672 89.4733 44.628 89.4961 50.0292 87.1933V87.2404ZM36.4668 82.4833C25.8625 78.4604 28.1384 63.2433 39.3445 63.2433C51.2215 63.2433 52.7328 80.1376 41.0712 82.5447C39.4884 82.8733 37.4164 82.8447 36.4668 82.5447V82.4833ZM114.579 86.809C120.664 83.7047 127.036 76.2533 128.613 70.3961C134.167 49.769 113.876 30.3804 94.4846 37.7861C83.1277 42.1233 76.8257 51.0547 76.7808 62.8776C76.7394 73.769 81.6517 82.049 90.8585 86.6061C97.3404 89.8147 108.501 89.9133 114.579 86.809ZM99.0376 82.1319C93.3856 79.8504 91.1966 72.3619 94.7139 67.3404C97.3805 63.5333 101.619 62.2219 106.283 63.7619C110.683 65.2133 112.44 67.7776 112.44 72.7433C112.44 77.7504 111.408 79.699 107.753 81.589C104.101 83.4776 102.604 83.5704 99.0376 82.1319Z" fill="white"/>
</svg>
